<svg width="35" height="46" viewBox="0 0 35 46" fill="none" xmlns="http://www.w3.org/2000/svg">
<path d="M0 5.6721H4.31627C4.31627 5.6721 6.88789 5.53083 8.51404 7.52162L17.9385 19.5835H11.3252C11.3252 19.5835 8.39461 19.7137 7.20744 17.6937L0 5.6721Z" fill="url(#paint0_linear_1308_26090)"/>
<path d="M14.8493 30.5192L18.73 37.0325C18.73 37.0325 20.1563 40.3293 24.8684 40.3293H34.7672L20.7495 23.1211L14.8493 24.4887C14.8493 24.4884 13.2263 26.6595 14.8493 30.5192V30.5192Z" fill="url(#paint1_linear_1308_26090)"/>
<path d="M22.8579 25.7126L20.5861 22.918L14.861 24.4891C14.861 24.4891 13.238 26.6602 14.861 30.5199L15.0992 30.9316C15.0802 30.6764 14.9041 26.6935 22.8579 25.7126V25.7126Z" fill="url(#paint2_linear_1308_26090)"/>
<path d="M15.0812 30.9196C15.0812 30.9196 13.2878 26.2387 19.1396 23.9964C19.1396 23.9964 23.3079 22.4825 26.0962 23.3799C26.0962 23.3799 25.9033 19.9603 19.0564 20.1844C19.0564 20.1844 15.4408 20.1564 12.5968 21.1657C12.5968 21.1657 9.5875 21.9783 11.8236 25.4818L15.0812 30.9196Z" fill="url(#paint3_linear_1308_26090)"/>
<defs>
<linearGradient id="paint0_linear_1308_26090" x1="8.96927" y1="5.66988" x2="8.96927" y2="19.5851" gradientUnits="userSpaceOnUse">
<stop offset="0.033" stop-color="#19AADE"/>
<stop offset="0.951" stop-color="#134E8E"/>
</linearGradient>
<linearGradient id="paint1_linear_1308_26090" x1="24.4476" y1="23.1211" x2="24.4476" y2="40.3293" gradientUnits="userSpaceOnUse">
<stop offset="0.132" stop-color="#E02527"/>
<stop offset="0.742" stop-color="#A1141C"/>
</linearGradient>
<linearGradient id="paint2_linear_1308_26090" x1="14.14" y1="26.925" x2="22.8579" y2="26.925" gradientUnits="userSpaceOnUse">
<stop offset="0.005" stop-color="#71251D"/>
<stop offset="0.742" stop-color="#C73127"/>
</linearGradient>
<linearGradient id="paint3_linear_1308_26090" x1="10.9976" y1="25.5466" x2="26.0966" y2="25.5466" gradientUnits="userSpaceOnUse">
<stop offset="0.148" stop-color="#E8EBEE"/>
<stop offset="0.742" stop-color="#95A5AF"/>
</linearGradient>
</defs>
</svg>
