<svg width="66" height="66" viewBox="0 0 66 66" fill="none" xmlns="http://www.w3.org/2000/svg">
<rect width="65.387" height="65.387" rx="16" fill="#F9668D"/>
<path d="M31.5492 28.157H33.8394V27.0227C33.8394 26.7218 33.9601 26.4333 34.1748 26.2205C34.3896 26.0078 34.6808 25.8883 34.9845 25.8883H38.4199C38.7236 25.8883 39.0148 26.0078 39.2296 26.2205C39.4443 26.4333 39.565 26.7218 39.565 27.0227V28.157H44.1454V23.6195C44.1454 22.4161 43.6629 21.262 42.8039 20.411C41.9449 19.5601 40.7798 19.082 39.565 19.082H25.8236C24.6088 19.082 23.4438 19.5601 22.5847 20.411C21.7257 21.262 21.2432 22.4161 21.2432 23.6195V28.157H25.8236V27.0227C25.8236 26.7218 25.9443 26.4333 26.159 26.2205C26.3738 26.0078 26.665 25.8883 26.9687 25.8883H30.4041C30.7078 25.8883 30.999 26.0078 31.2138 26.2205C31.4285 26.4333 31.5492 26.7218 31.5492 27.0227V28.157Z" fill="white"/>
<path d="M22.3884 30.4258C20.87 30.4258 19.4137 31.0234 18.34 32.087C17.2663 33.1507 16.6631 34.5934 16.6631 36.0977V45.1727C16.6631 45.4735 16.7837 45.7621 16.9985 45.9748C17.2132 46.1875 17.5045 46.3071 17.8082 46.3071C18.1118 46.3071 18.4031 46.1875 18.6178 45.9748C18.8326 45.7621 18.9532 45.4735 18.9532 45.1727V39.5008H46.4348V45.1727C46.4348 45.4735 46.5554 45.7621 46.7702 45.9748C46.9849 46.1875 47.2762 46.3071 47.5798 46.3071C47.8835 46.3071 48.1748 46.1875 48.3895 45.9748C48.6043 45.7621 48.7249 45.4735 48.7249 45.1727V36.0977C48.7249 34.5934 48.1217 33.1507 47.048 32.087C45.9743 31.0234 44.518 30.4258 42.9996 30.4258H22.3884Z" fill="white"/>
</svg>
