<svg width="24" height="24" viewBox="0 0 24 24" fill="none" xmlns="http://www.w3.org/2000/svg">
<path d="M10.1848 20.5066H8.64535L11.7558 16.0806C11.7558 16.0806 12.2206 15.1639 11.613 14.1949L7.27771 7.72178C7.27771 7.72178 6.89768 7.1216 7.27771 6.54544L8.56063 4.81475L13.6487 12.3093C13.6487 12.3093 14.9607 13.8785 13.5349 15.823L10.1848 20.5066Z" fill="#FCB130"/>
<path d="M13.9029 19.1491L15.7934 16.5519C15.7934 16.5519 16.3453 15.4804 17.771 15.4804H19.7777L21.1768 17.4686C21.1768 17.4686 20.073 17.366 19.5792 18.0753L17.5168 20.8798C17.5168 20.8798 16.8439 22.1914 15.0454 22.1914H5.32914L9.02538 17.0757C9.02538 17.0757 9.54823 16.4756 8.81721 15.4804L5.52763 10.7139C5.52763 10.7139 4.71915 10.009 5.55667 8.80206L6.51765 7.4904L11.0877 14.1709C11.0877 14.1709 11.8962 15.0875 11.0877 16.1875L7.65533 21.0129H14.8929C14.8929 21.0129 15.7086 21.1482 16.4106 20.2054L18.2091 17.7108C18.2091 17.7108 18.6182 16.8706 19.5211 16.5279H18.0663C18.0663 16.5279 17.3062 16.5541 16.7277 17.3682L15.1301 19.5965C15.1301 19.5965 14.5492 20.5393 13.2663 20.5393H10.7367L13.7891 16.2682C13.7891 16.2682 15.4521 14.2975 14.2829 12.4882L9.22387 4.94348C9.22387 4.94348 8.84384 4.29093 9.28197 3.6842L10.3858 2.19141L16.1468 10.5567C16.1468 10.5567 16.9916 11.8095 16.9916 12.7785C16.9916 13.7475 16.3186 14.8453 15.9459 15.4018L13.4091 18.9679C13.4091 18.9679 13.1234 19.3106 13.3244 19.4393C13.5301 19.5681 13.731 19.3368 13.9029 19.1491Z" fill="#FCB130"/>
</svg>
