<svg width="35" height="46" viewBox="0 0 35 46" fill="none" xmlns="http://www.w3.org/2000/svg">
<path fill-rule="evenodd" clip-rule="evenodd" d="M34.5003 25.976C34.6779 24.9926 34.7671 23.9959 34.7668 22.9972C34.7668 22.3823 34.7328 21.8035 34.6673 21.2513C34.6533 21.1316 32.6708 25.1063 29.499 27.624C31.7055 25.6907 34.5837 20.6466 34.5431 20.4279C34.5082 20.2381 34.4688 20.0491 34.4249 19.8611C34.0457 18.2341 33.3618 16.7879 32.4298 15.2157C32.141 18.5523 31.1317 22.1067 28.4836 25.1804C31.2319 21.955 32.1881 14.6089 31.5332 13.5972C28.8972 9.55525 23.3466 6.01758 17.4042 6.01758L17.3624 6.12425V6.02505C11.4198 6.02505 5.86962 9.56251 3.23362 13.6043C2.57854 14.6159 3.53474 21.9621 6.283 25.1874C3.63511 22.1138 2.62565 18.5593 2.33706 15.2227C1.40442 16.7952 0.720906 18.241 0.341696 19.8682C0.29781 20.0562 0.2584 20.2451 0.223498 20.4349C0.182967 20.6537 3.06131 25.6977 5.26781 27.631C2.09578 25.1131 0.113364 21.1384 0.0991467 21.2584C0.0316613 21.838 -0.00142737 22.4209 4.71829e-05 23.0043C4.71829e-05 24.0205 0.091295 25.0158 0.266364 25.9831C0.428276 26.8777 4.11491 29.3408 4.2104 29.4182C1.53259 28.3951 0.427003 26.786 0.527588 27.1747C2.42852 34.5358 9.24474 39.9837 17.3624 39.9837V39.976L17.4042 39.9765C25.5219 39.9765 32.3381 34.5289 34.2388 27.1674C34.3396 26.7787 33.2342 28.3879 30.5562 29.411C30.6515 29.3338 34.3381 26.8709 34.5003 25.976V25.976ZM23.0168 26.6297C22.8415 26.7042 22.6641 26.7684 22.4825 26.8165C20.8179 27.26 18.5036 27.0971 17.4216 25.7148C16.3271 24.3165 16.6301 22.0482 17.481 20.6165C18.3402 19.1711 19.63 18.097 20.7761 16.8804C21.3252 16.3001 21.8847 15.7291 22.4543 15.168C22.8239 14.8021 23.8327 14.0181 23.8119 13.4951C23.8024 13.2475 23.3423 12.8113 23.2144 12.577C23.0278 12.2356 22.9113 11.8936 22.7117 11.5684C22.2699 10.8504 21.6767 10.5215 20.878 10.3675C19.8796 10.1751 19.1634 10.2608 18.3364 10.8025C17.7142 11.21 17.0666 11.97 16.3067 12.0501C15.106 12.1767 9.87753 13.0244 9.62989 13.1776C10.2748 13.1309 18.1586 13.2801 19.0518 13.4951C20.102 13.7479 20.0544 14.5755 19.3414 15.2265C17.0991 17.2733 13.7959 18.4915 12.3877 21.3078C11.729 22.6245 11.3065 23.516 11.3048 25.0561C11.3042 25.6907 11.3549 26.9929 12.1566 28.6099C12.1195 28.5861 10.8895 27.1674 10.8401 25.9673C7.87305 24.027 6.36406 21.1254 6.36406 17.3492C6.36406 11.3636 11.2798 6.51107 17.3435 6.51107C23.4073 6.51107 28.3228 11.3634 28.3228 17.3492C28.3232 21.2854 26.6026 24.9264 23.0168 26.6297V26.6297Z" fill="#B4282E"/>
<path fill-rule="evenodd" clip-rule="evenodd" d="M17.8187 29.918L16.3863 33.7669C15.5607 35.9852 12.0559 35.5191 11.9326 35.5191C11.6446 35.5191 11.4244 35.4879 11.2041 35.2843L11.7287 34.7132C11.8537 34.8072 12.0493 34.862 12.2492 34.862C12.4126 34.862 14.2134 35.2443 14.7503 33.7669L16.1826 29.918H17.8187V29.918ZM27.9337 34.7446L27.692 35.3939H22.7639L24.802 29.918H26.4557L24.6589 34.7446H27.9337V34.7446ZM20.5869 29.9317L16.2208 35.4072H17.0688L18.174 33.9209H20.1517L19.8222 35.4072H21.5641L22.9021 29.9317H20.5869V29.9317ZM18.7495 33.1444L21.002 30.4486L20.3815 33.1444H18.7495V33.1444Z" fill="white"/>
</svg>
