<svg width="24" height="25" viewBox="0 0 24 25" fill="none" xmlns="http://www.w3.org/2000/svg">
<path d="M21.6732 19.0536C21.0303 18.4805 20.4675 17.8235 19.9999 17.1003C19.4894 16.102 19.1834 15.0117 19.0999 13.8936V10.6003C19.1043 8.844 18.4672 7.14658 17.3084 5.82691C16.1495 4.50724 14.5486 3.65617 12.8065 3.43359V2.57359C12.8065 2.33755 12.7128 2.11118 12.5459 1.94427C12.379 1.77736 12.1526 1.68359 11.9165 1.68359C11.6805 1.68359 11.4541 1.77736 11.2872 1.94427C11.1203 2.11118 11.0265 2.33755 11.0265 2.57359V3.44693C9.30004 3.68555 7.71852 4.54176 6.57489 5.857C5.43126 7.17223 4.80302 8.85736 4.80654 10.6003V13.8936C4.72304 15.0117 4.41705 16.102 3.90654 17.1003C3.44712 17.8218 2.89333 18.4788 2.25987 19.0536C2.18876 19.1161 2.13176 19.193 2.09268 19.2792C2.0536 19.3654 2.03332 19.4589 2.0332 19.5536V20.4603C2.0332 20.6371 2.10344 20.8066 2.22847 20.9317C2.35349 21.0567 2.52306 21.1269 2.69987 21.1269H21.2332C21.41 21.1269 21.5796 21.0567 21.7046 20.9317C21.8296 20.8066 21.8999 20.6371 21.8999 20.4603V19.5536C21.8997 19.4589 21.8795 19.3654 21.8404 19.2792C21.8013 19.193 21.7443 19.1161 21.6732 19.0536ZM3.41987 19.7936C4.04014 19.1944 4.58627 18.5229 5.04654 17.7936C5.68961 16.5879 6.06482 15.2576 6.14654 13.8936V10.6003C6.1201 9.81895 6.25115 9.04031 6.5319 8.31071C6.81265 7.5811 7.23734 6.91545 7.7807 6.35339C8.32406 5.79134 8.97496 5.34437 9.69466 5.03911C10.4143 4.73385 11.1881 4.57653 11.9699 4.57653C12.7516 4.57653 13.5254 4.73385 14.2451 5.03911C14.9648 5.34437 15.6157 5.79134 16.159 6.35339C16.7024 6.91545 17.1271 7.5811 17.4078 8.31071C17.6886 9.04031 17.8196 9.81895 17.7932 10.6003V13.8936C17.8749 15.2576 18.2501 16.5879 18.8932 17.7936C19.3535 18.5229 19.8996 19.1944 20.5199 19.7936H3.41987Z" fill="#424242"/>
<path d="M12 23.313C12.42 23.3033 12.823 23.1454 13.1378 22.8672C13.4526 22.5891 13.6588 22.2085 13.72 21.793H10.2134C10.2764 22.2198 10.4923 22.6093 10.8209 22.8889C11.1496 23.1685 11.5686 23.3192 12 23.313V23.313Z" fill="#424242"/>
<circle cx="18.4565" cy="5.9375" r="3.5" fill="#F99A0E" stroke="white"/>
</svg>
