<svg width="130" height="31" viewBox="0 0 130 31" fill="none" xmlns="http://www.w3.org/2000/svg">
<g clip-path="url(#clip0_1308_26519)">
<path d="M14.9996 0.902344C7.04661 0.902344 0.599609 7.34934 0.599609 15.3023C0.599609 23.2553 7.04661 29.7023 14.9996 29.7023C22.9526 29.7023 29.3996 23.2553 29.3996 15.3023C29.3996 7.34934 22.9526 0.902344 14.9996 0.902344ZM18.4106 10.8533H16.2461C15.9896 10.8533 15.7046 11.1908 15.7046 11.6393V13.2023H18.4121L18.0026 15.4313H15.7046V22.1228H13.1501V15.4313H10.8326V13.2023H13.1501V11.8913C13.1501 10.0103 14.4551 8.48184 16.2461 8.48184H18.4106V10.8533V10.8533Z" fill="white"/>
</g>
<g clip-path="url(#clip1_1308_26519)">
<path d="M115 0.902344C107.047 0.902344 100.6 7.34934 100.6 15.3023C100.6 23.2553 107.047 29.7023 115 29.7023C122.953 29.7023 129.4 23.2553 129.4 15.3023C129.4 7.34934 122.953 0.902344 115 0.902344ZM120.857 12.6983C120.863 12.8213 120.865 12.9443 120.865 13.0643C120.865 16.8143 118.013 21.1358 112.796 21.1358C111.255 21.1384 109.745 20.6957 108.449 19.8608C108.67 19.8878 108.896 19.8983 109.126 19.8983C110.455 19.8983 111.677 19.4468 112.648 18.6848C112.056 18.6732 111.483 18.4774 111.008 18.1246C110.533 17.7719 110.18 17.2797 109.999 16.7168C110.423 16.7976 110.861 16.7807 111.278 16.6673C110.636 16.5375 110.059 16.1897 109.644 15.6828C109.229 15.176 109.003 14.5413 109.003 13.8863V13.8518C109.385 14.0633 109.823 14.1923 110.288 14.2073C109.686 13.8067 109.26 13.1913 109.097 12.487C108.934 11.7827 109.046 11.0427 109.411 10.4183C110.123 11.2943 111.012 12.011 112.018 12.5218C113.025 13.0327 114.128 13.3263 115.256 13.3838C115.113 12.7753 115.174 12.1365 115.432 11.5666C115.689 10.9967 116.127 10.5278 116.678 10.2327C117.229 9.93765 117.863 9.83293 118.479 9.93485C119.096 10.0368 119.662 10.3396 120.089 10.7963C120.724 10.6708 121.333 10.4379 121.889 10.1078C121.678 10.765 121.235 11.3231 120.643 11.6783C121.205 11.6106 121.754 11.4595 122.272 11.2298C121.891 11.7997 121.412 12.297 120.857 12.6983V12.6983Z" fill="white"/>
</g>
<g clip-path="url(#clip2_1308_26519)">
<path d="M69.4996 15.3023C69.4996 16.4958 69.0255 17.6404 68.1816 18.4843C67.3377 19.3282 66.1931 19.8023 64.9996 19.8023C63.8061 19.8023 62.6615 19.3282 61.8176 18.4843C60.9737 17.6404 60.4996 16.4958 60.4996 15.3023C60.4996 15.0458 60.5266 14.7953 60.5731 14.5523H58.9996V20.5478C58.9996 20.9648 59.3371 21.3023 59.7541 21.3023H70.2466C70.4465 21.3019 70.638 21.2223 70.7792 21.0808C70.9203 20.9394 70.9996 20.7477 70.9996 20.5478V14.5523H69.4261C69.4726 14.7953 69.4996 15.0458 69.4996 15.3023V15.3023ZM64.9996 18.3023C65.3937 18.3022 65.7839 18.2245 66.1479 18.0736C66.5119 17.9227 66.8427 17.7016 67.1212 17.4229C67.3998 17.1442 67.6208 16.8133 67.7715 16.4492C67.9222 16.0851 67.9997 15.6949 67.9996 15.3008C67.9995 14.9068 67.9218 14.5166 67.7709 14.1526C67.62 13.7885 67.3989 13.4578 67.1202 13.1792C66.8415 12.9006 66.5106 12.6797 66.1465 12.529C65.7824 12.3783 65.3922 12.3007 64.9981 12.3008C64.2023 12.301 63.4391 12.6174 62.8765 13.1803C62.3139 13.7432 61.9979 14.5065 61.9981 15.3023C61.9983 16.0982 62.3147 16.8614 62.8775 17.424C63.4404 17.9866 64.2038 18.3025 64.9996 18.3023V18.3023ZM68.5996 12.1523H70.3981C70.5176 12.1523 70.6322 12.105 70.7168 12.0206C70.8015 11.9363 70.8492 11.8218 70.8496 11.7023V9.90384C70.8496 9.7841 70.802 9.66926 70.7174 9.58458C70.6327 9.49991 70.5179 9.45234 70.3981 9.45234H68.5996C68.4799 9.45234 68.365 9.49991 68.2804 9.58458C68.1957 9.66926 68.1481 9.7841 68.1481 9.90384V11.7023C68.1496 11.9498 68.3521 12.1523 68.5996 12.1523V12.1523ZM64.9996 0.902344C61.1805 0.902344 57.5178 2.41948 54.8173 5.12001C52.1167 7.82053 50.5996 11.4832 50.5996 15.3023C50.5996 19.1215 52.1167 22.7842 54.8173 25.4847C57.5178 28.1852 61.1805 29.7023 64.9996 29.7023C66.8906 29.7023 68.7632 29.3299 70.5103 28.6062C72.2573 27.8825 73.8448 26.8218 75.182 25.4847C76.5191 24.1475 77.5798 22.5601 78.3035 20.813C79.0271 19.0659 79.3996 17.1934 79.3996 15.3023C79.3996 13.4113 79.0271 11.5388 78.3035 9.7917C77.5798 8.04461 76.5191 6.45717 75.182 5.12001C73.8448 3.78284 72.2573 2.72215 70.5103 1.99848C68.7632 1.27481 66.8906 0.902344 64.9996 0.902344V0.902344ZM72.4996 21.1358C72.4996 22.0523 71.7496 22.8023 70.8331 22.8023H59.1661C58.2496 22.8023 57.4996 22.0523 57.4996 21.1358V9.46884C57.4996 8.55234 58.2496 7.80234 59.1661 7.80234H70.8331C71.7496 7.80234 72.4996 8.55234 72.4996 9.46884V21.1358V21.1358Z" fill="white"/>
</g>
<defs>
<clipPath id="clip0_1308_26519">
<rect width="30" height="30" fill="white" transform="translate(0 0.302734)"/>
</clipPath>
<clipPath id="clip1_1308_26519">
<rect width="30" height="30" fill="white" transform="translate(100 0.302734)"/>
</clipPath>
<clipPath id="clip2_1308_26519">
<rect width="30" height="30" fill="white" transform="translate(50 0.302734)"/>
</clipPath>
</defs>
</svg>
