<svg width="130" height="31" viewBox="0 0 130 31" fill="none" xmlns="http://www.w3.org/2000/svg">
<g clip-path="url(#clip0_1308_26299)">
<path d="M14.9996 0.986328C7.04661 0.986328 0.599609 7.43333 0.599609 15.3863C0.599609 23.3393 7.04661 29.7863 14.9996 29.7863C22.9526 29.7863 29.3996 23.3393 29.3996 15.3863C29.3996 7.43333 22.9526 0.986328 14.9996 0.986328ZM18.4106 10.9373H16.2461C15.9896 10.9373 15.7046 11.2748 15.7046 11.7233V13.2863H18.4121L18.0026 15.5153H15.7046V22.2068H13.1501V15.5153H10.8326V13.2863H13.1501V11.9753C13.1501 10.0943 14.4551 8.56583 16.2461 8.56583H18.4106V10.9373V10.9373Z" fill="white"/>
</g>
<g clip-path="url(#clip1_1308_26299)">
<path d="M115 0.986328C107.047 0.986328 100.6 7.43333 100.6 15.3863C100.6 23.3393 107.047 29.7863 115 29.7863C122.953 29.7863 129.4 23.3393 129.4 15.3863C129.4 7.43333 122.953 0.986328 115 0.986328ZM120.857 12.7823C120.863 12.9053 120.865 13.0283 120.865 13.1483C120.865 16.8983 118.013 21.2198 112.796 21.2198C111.255 21.2224 109.745 20.7796 108.449 19.9448C108.67 19.9718 108.896 19.9823 109.126 19.9823C110.455 19.9823 111.677 19.5308 112.648 18.7688C112.056 18.7572 111.483 18.5614 111.008 18.2086C110.533 17.8558 110.18 17.3637 109.999 16.8008C110.423 16.8816 110.861 16.8647 111.278 16.7513C110.636 16.6215 110.059 16.2737 109.644 15.7668C109.229 15.26 109.003 14.6252 109.003 13.9703V13.9358C109.385 14.1473 109.823 14.2763 110.288 14.2913C109.686 13.8907 109.26 13.2753 109.097 12.571C108.934 11.8667 109.046 11.1267 109.411 10.5023C110.123 11.3783 111.012 12.0949 112.018 12.6058C113.025 13.1166 114.128 13.4103 115.256 13.4678C115.113 12.8593 115.174 12.2204 115.432 11.6506C115.689 11.0807 116.127 10.6118 116.678 10.3167C117.229 10.0216 117.863 9.91691 118.479 10.0188C119.096 10.1208 119.662 10.4236 120.089 10.8803C120.724 10.7547 121.333 10.5219 121.889 10.1918C121.678 10.849 121.235 11.4071 120.643 11.7623C121.205 11.6946 121.754 11.5434 122.272 11.3138C121.891 11.8837 121.412 12.381 120.857 12.7823V12.7823Z" fill="white"/>
</g>
<g clip-path="url(#clip2_1308_26299)">
<path d="M69.4996 15.3863C69.4996 16.5798 69.0255 17.7244 68.1816 18.5683C67.3377 19.4122 66.1931 19.8863 64.9996 19.8863C63.8061 19.8863 62.6615 19.4122 61.8176 18.5683C60.9737 17.7244 60.4996 16.5798 60.4996 15.3863C60.4996 15.1298 60.5266 14.8793 60.5731 14.6363H58.9996V20.6318C58.9996 21.0488 59.3371 21.3863 59.7541 21.3863H70.2466C70.4465 21.3859 70.638 21.3063 70.7792 21.1648C70.9203 21.0234 70.9996 20.8317 70.9996 20.6318V14.6363H69.4261C69.4726 14.8793 69.4996 15.1298 69.4996 15.3863V15.3863ZM64.9996 18.3863C65.3937 18.3862 65.7839 18.3085 66.1479 18.1576C66.5119 18.0067 66.8427 17.7856 67.1212 17.5069C67.3998 17.2282 67.6208 16.8973 67.7715 16.5332C67.9222 16.1691 67.9997 15.7789 67.9996 15.3848C67.9995 14.9908 67.9218 14.6006 67.7709 14.2365C67.62 13.8725 67.3989 13.5418 67.1202 13.2632C66.8415 12.9846 66.5106 12.7637 66.1465 12.613C65.7824 12.4622 65.3922 12.3847 64.9981 12.3848C64.2023 12.385 63.4391 12.7014 62.8765 13.2643C62.3139 13.8271 61.9979 14.5905 61.9981 15.3863C61.9983 16.1822 62.3147 16.9454 62.8775 17.508C63.4404 18.0706 64.2038 18.3865 64.9996 18.3863V18.3863ZM68.5996 12.2363H70.3981C70.5176 12.2363 70.6322 12.189 70.7168 12.1046C70.8015 12.0203 70.8492 11.9058 70.8496 11.7863V9.98783C70.8496 9.86808 70.802 9.75324 70.7174 9.66857C70.6327 9.5839 70.5179 9.53633 70.3981 9.53633H68.5996C68.4799 9.53633 68.365 9.5839 68.2804 9.66857C68.1957 9.75324 68.1481 9.86808 68.1481 9.98783V11.7863C68.1496 12.0338 68.3521 12.2363 68.5996 12.2363V12.2363ZM64.9996 0.986328C61.1805 0.986328 57.5178 2.50347 54.8173 5.20399C52.1167 7.90451 50.5996 11.5672 50.5996 15.3863C50.5996 19.2054 52.1167 22.8681 54.8173 25.5687C57.5178 28.2692 61.1805 29.7863 64.9996 29.7863C66.8906 29.7863 68.7632 29.4139 70.5103 28.6902C72.2573 27.9665 73.8448 26.9058 75.182 25.5687C76.5191 24.2315 77.5798 22.6441 78.3035 20.897C79.0271 19.1499 79.3996 17.2774 79.3996 15.3863C79.3996 13.4953 79.0271 11.6228 78.3035 9.87569C77.5798 8.1286 76.5191 6.54115 75.182 5.20399C73.8448 3.86683 72.2573 2.80613 70.5103 2.08246C68.7632 1.3588 66.8906 0.986328 64.9996 0.986328V0.986328ZM72.4996 21.2198C72.4996 22.1363 71.7496 22.8863 70.8331 22.8863H59.1661C58.2496 22.8863 57.4996 22.1363 57.4996 21.2198V9.55283C57.4996 8.63633 58.2496 7.88633 59.1661 7.88633H70.8331C71.7496 7.88633 72.4996 8.63633 72.4996 9.55283V21.2198V21.2198Z" fill="white"/>
</g>
<defs>
<clipPath id="clip0_1308_26299">
<rect width="30" height="30" fill="white" transform="translate(0 0.386719)"/>
</clipPath>
<clipPath id="clip1_1308_26299">
<rect width="30" height="30" fill="white" transform="translate(100 0.386719)"/>
</clipPath>
<clipPath id="clip2_1308_26299">
<rect width="30" height="30" fill="white" transform="translate(50 0.386719)"/>
</clipPath>
</defs>
</svg>
