<svg width="130" height="31" viewBox="0 0 130 31" fill="none" xmlns="http://www.w3.org/2000/svg">
<g clip-path="url(#clip0_1308_25874)">
<path d="M15.0001 0.986328C7.0471 0.986328 0.600098 7.43333 0.600098 15.3863C0.600098 23.3393 7.0471 29.7863 15.0001 29.7863C22.9531 29.7863 29.4001 23.3393 29.4001 15.3863C29.4001 7.43333 22.9531 0.986328 15.0001 0.986328ZM18.4111 10.9373H16.2466C15.9901 10.9373 15.7051 11.2748 15.7051 11.7233V13.2863H18.4126L18.0031 15.5153H15.7051V22.2068H13.1506V15.5153H10.8331V13.2863H13.1506V11.9753C13.1506 10.0943 14.4556 8.56583 16.2466 8.56583H18.4111V10.9373V10.9373Z" fill="white"/>
</g>
<g clip-path="url(#clip1_1308_25874)">
<path d="M115 0.986328C107.047 0.986328 100.6 7.43333 100.6 15.3863C100.6 23.3393 107.047 29.7863 115 29.7863C122.953 29.7863 129.4 23.3393 129.4 15.3863C129.4 7.43333 122.953 0.986328 115 0.986328ZM120.858 12.7823C120.864 12.9053 120.865 13.0283 120.865 13.1483C120.865 16.8983 118.014 21.2198 112.797 21.2198C111.255 21.2224 109.746 20.7796 108.45 19.9448C108.67 19.9718 108.897 19.9823 109.126 19.9823C110.455 19.9823 111.678 19.5308 112.648 18.7688C112.057 18.7572 111.484 18.5614 111.009 18.2086C110.534 17.8558 110.181 17.3637 109.999 16.8008C110.424 16.8816 110.861 16.8647 111.279 16.7513C110.637 16.6215 110.059 16.2737 109.645 15.7668C109.23 15.26 109.003 14.6252 109.003 13.9703V13.9358C109.386 14.1473 109.824 14.2763 110.289 14.2913C109.687 13.8907 109.261 13.2753 109.098 12.571C108.935 11.8667 109.047 11.1267 109.411 10.5023C110.124 11.3783 111.012 12.0949 112.019 12.6058C113.026 13.1166 114.129 13.4103 115.257 13.4678C115.113 12.8593 115.175 12.2204 115.432 11.6506C115.689 11.0807 116.128 10.6118 116.679 10.3167C117.23 10.0216 117.863 9.91691 118.48 10.0188C119.097 10.1208 119.663 10.4236 120.09 10.8803C120.724 10.7547 121.333 10.5219 121.89 10.1918C121.678 10.849 121.235 11.4071 120.643 11.7623C121.205 11.6946 121.754 11.5434 122.272 11.3138C121.892 11.8837 121.413 12.381 120.858 12.7823V12.7823Z" fill="white"/>
</g>
<g clip-path="url(#clip2_1308_25874)">
<path d="M69.5001 15.3863C69.5001 16.5798 69.026 17.7244 68.1821 18.5683C67.3382 19.4122 66.1936 19.8863 65.0001 19.8863C63.8066 19.8863 62.662 19.4122 61.8181 18.5683C60.9742 17.7244 60.5001 16.5798 60.5001 15.3863C60.5001 15.1298 60.5271 14.8793 60.5736 14.6363H59.0001V20.6318C59.0001 21.0488 59.3376 21.3863 59.7546 21.3863H70.2471C70.4469 21.3859 70.6385 21.3063 70.7796 21.1648C70.9208 21.0234 71.0001 20.8317 71.0001 20.6318V14.6363H69.4266C69.4731 14.8793 69.5001 15.1298 69.5001 15.3863V15.3863ZM65.0001 18.3863C65.3942 18.3862 65.7844 18.3085 66.1484 18.1576C66.5124 18.0067 66.8432 17.7856 67.1217 17.5069C67.4003 17.2282 67.6213 16.8973 67.772 16.5332C67.9227 16.1691 68.0002 15.7789 68.0001 15.3848C68 14.9908 67.9223 14.6006 67.7714 14.2365C67.6205 13.8725 67.3994 13.5418 67.1207 13.2632C66.842 12.9846 66.5111 12.7637 66.147 12.613C65.7829 12.4622 65.3927 12.3847 64.9986 12.3848C64.2028 12.385 63.4396 12.7014 62.877 13.2643C62.3144 13.8271 61.9984 14.5905 61.9986 15.3863C61.9988 16.1822 62.3151 16.9454 62.878 17.508C63.4409 18.0706 64.2043 18.3865 65.0001 18.3863V18.3863ZM68.6001 12.2363H70.3986C70.5181 12.2363 70.6327 12.189 70.7173 12.1046C70.802 12.0203 70.8497 11.9058 70.8501 11.7863V9.98783C70.8501 9.86808 70.8025 9.75324 70.7179 9.66857C70.6332 9.5839 70.5183 9.53633 70.3986 9.53633H68.6001C68.4804 9.53633 68.3655 9.5839 68.2808 9.66857C68.1962 9.75324 68.1486 9.86808 68.1486 9.98783V11.7863C68.1501 12.0338 68.3526 12.2363 68.6001 12.2363V12.2363ZM65.0001 0.986328C61.181 0.986328 57.5183 2.50347 54.8178 5.20399C52.1172 7.90451 50.6001 11.5672 50.6001 15.3863C50.6001 19.2054 52.1172 22.8681 54.8178 25.5687C57.5183 28.2692 61.181 29.7863 65.0001 29.7863C66.8911 29.7863 68.7637 29.4139 70.5107 28.6902C72.2578 27.9665 73.8453 26.9058 75.1824 25.5687C76.5196 24.2315 77.5803 22.6441 78.304 20.897C79.0276 19.1499 79.4001 17.2774 79.4001 15.3863C79.4001 13.4953 79.0276 11.6228 78.304 9.87569C77.5803 8.1286 76.5196 6.54115 75.1824 5.20399C73.8453 3.86683 72.2578 2.80613 70.5107 2.08246C68.7637 1.3588 66.8911 0.986328 65.0001 0.986328V0.986328ZM72.5001 21.2198C72.5001 22.1363 71.7501 22.8863 70.8336 22.8863H59.1666C58.2501 22.8863 57.5001 22.1363 57.5001 21.2198V9.55283C57.5001 8.63633 58.2501 7.88633 59.1666 7.88633H70.8336C71.7501 7.88633 72.5001 8.63633 72.5001 9.55283V21.2198V21.2198Z" fill="white"/>
</g>
<defs>
<clipPath id="clip0_1308_25874">
<rect width="30" height="30" fill="white" transform="translate(0 0.386719)"/>
</clipPath>
<clipPath id="clip1_1308_25874">
<rect width="30" height="30" fill="white" transform="translate(100 0.386719)"/>
</clipPath>
<clipPath id="clip2_1308_25874">
<rect width="30" height="30" fill="white" transform="translate(50 0.386719)"/>
</clipPath>
</defs>
</svg>
