<svg width="32" height="32" viewBox="0 0 32 32" fill="none" xmlns="http://www.w3.org/2000/svg">
<path d="M21.7607 1.04221C21.1018 0.38988 20.2084 0.0234375 19.2769 0.0234375C18.3454 0.0234375 17.452 0.38988 16.7931 1.04221L1.36558 16.3272C1.0393 16.6505 0.780477 17.0342 0.603895 17.4565C0.427312 17.8789 0.336426 18.3315 0.336426 18.7886C0.336426 19.2458 0.427312 19.6984 0.603895 20.1207C0.780477 20.5431 1.0393 20.9268 1.36558 21.25L3.19583 23.0616C3.99227 23.8522 5.11197 23.7114 5.78816 23.3123C6.16116 23.0928 6.59732 23.0028 7.02775 23.0563C7.45818 23.1098 7.85836 23.3038 8.1651 23.6076C8.47185 23.9115 8.66768 24.308 8.72167 24.7344C8.77566 25.1608 8.68474 25.5929 8.46326 25.9624C8.06191 26.6323 7.91824 27.7415 8.71624 28.5305L10.5481 30.3437C10.8743 30.6669 11.2617 30.9233 11.688 31.0983C12.1143 31.2732 12.5712 31.3632 13.0326 31.3632C13.4941 31.3632 13.951 31.2732 14.3773 31.0983C14.8036 30.9233 15.1909 30.6669 15.5172 30.3437L30.9431 15.0617C31.2694 14.7385 31.5282 14.3548 31.7048 13.9325C31.8814 13.5101 31.9723 13.0575 31.9723 12.6004C31.9723 12.1432 31.8814 11.6906 31.7048 11.2683C31.5282 10.8459 31.2694 10.4622 30.9431 10.139L29.1144 8.32581C28.318 7.53681 27.1968 7.67604 26.5206 8.07519C26.1476 8.2946 25.7114 8.38467 25.281 8.33119C24.8505 8.2777 24.4504 8.0837 24.1436 7.77981C23.8369 7.47593 23.641 7.07949 23.587 6.65307C23.5331 6.22666 23.624 5.79458 23.8455 5.42506C24.2484 4.75518 24.3905 3.64593 23.5925 2.85692L21.7622 1.04221H21.7607Z" fill="white"/>
</svg>
