<svg width="32" height="32" viewBox="0 0 32 32" fill="none" xmlns="http://www.w3.org/2000/svg">
<path d="M21.7612 1.04221C21.1023 0.38988 20.2089 0.0234375 19.2774 0.0234375C18.3458 0.0234375 17.4524 0.38988 16.7936 1.04221L1.36607 16.3272C1.03979 16.6505 0.780966 17.0342 0.604383 17.4565C0.4278 17.8789 0.336914 18.3315 0.336914 18.7886C0.336914 19.2458 0.4278 19.6984 0.604383 20.1207C0.780966 20.5431 1.03979 20.9268 1.36607 21.25L3.19632 23.0616C3.99276 23.8522 5.11246 23.7114 5.78865 23.3123C6.16165 23.0928 6.5978 23.0028 7.02823 23.0563C7.45866 23.1098 7.85885 23.3038 8.16559 23.6076C8.47234 23.9115 8.66817 24.308 8.72216 24.7344C8.77615 25.1608 8.68523 25.5929 8.46375 25.9624C8.0624 26.6323 7.91873 27.7415 8.71673 28.5305L10.5485 30.3437C10.8748 30.6669 11.2622 30.9233 11.6885 31.0983C12.1148 31.2732 12.5717 31.3632 13.0331 31.3632C13.4945 31.3632 13.9515 31.2732 14.3778 31.0983C14.8041 30.9233 15.1914 30.6669 15.5177 30.3437L30.9436 15.0617C31.2699 14.7385 31.5287 14.3548 31.7053 13.9325C31.8819 13.5101 31.9728 13.0575 31.9728 12.6004C31.9728 12.1432 31.8819 11.6906 31.7053 11.2683C31.5287 10.8459 31.2699 10.4622 30.9436 10.139L29.1149 8.32581C28.3185 7.53681 27.1972 7.67604 26.521 8.07519C26.148 8.2946 25.7119 8.38467 25.2815 8.33119C24.851 8.2777 24.4508 8.0837 24.1441 7.77981C23.8374 7.47593 23.6415 7.07949 23.5875 6.65307C23.5335 6.22666 23.6245 5.79458 23.8459 5.42506C24.2489 4.75518 24.391 3.64593 23.593 2.85692L21.7627 1.04221H21.7612Z" fill="white"/>
</svg>
