<svg width="35" height="46" viewBox="0 0 35 46" fill="none" xmlns="http://www.w3.org/2000/svg">
<path fill-rule="evenodd" clip-rule="evenodd" d="M17.384 8.08396C8.7755 8.08396 1.73053 15.2873 1.73053 24.2575C1.73053 33.2269 8.77613 40.4296 17.384 40.4296C25.9911 40.4296 33.036 33.227 33.036 24.2575C33.036 15.2872 25.9903 8.08396 17.384 8.08396ZM0.176758 24.2575C0.176758 14.5242 7.8415 6.56445 17.384 6.56445C26.9244 6.56445 34.5898 14.5243 34.5898 24.2575C34.5898 33.9901 26.9251 41.9491 17.384 41.9491C7.84229 41.9491 0.176758 33.9901 0.176758 24.2575Z" fill="#CF4037"/>
<path fill-rule="evenodd" clip-rule="evenodd" d="M22.3439 20.5448C21.5869 15.2974 17.1635 12.7063 14.4004 11.1542C11.8361 9.71456 9.54022 9.06036 9.48483 9.22912C12.4013 11.5743 14.274 15.228 14.274 19.333C14.274 26.0645 9.23486 31.5834 2.83301 32.0987L3.23779 32.7238C11.4334 31.4473 33.3659 27.3756 33.3659 27.3756L33.4241 26.8972L20.1176 26.4416C21.5862 24.8894 22.5917 22.2546 22.3439 20.5448V20.5448Z" fill="#CF4037"/>
</svg>
