<svg width="27" height="24" viewBox="0 0 27 24" fill="none" xmlns="http://www.w3.org/2000/svg">
<path d="M23.7502 0.0546875H2.86287C1.42295 0.0546875 0.251953 1.21476 0.251953 2.64125V20.7472C0.251953 22.1737 1.42295 23.3337 2.86287 23.3337H23.7502C25.1901 23.3337 26.3611 22.1737 26.3611 20.7472V2.64125C26.3611 1.21476 25.1901 0.0546875 23.7502 0.0546875ZM23.7515 7.81437C23.7502 7.81437 23.7502 7.81437 23.7515 7.81437H23.1444L19.6628 2.64125H23.7502L23.7515 7.81437ZM17.8756 15.574L10.6956 19.4539V11.6942L17.8756 15.574ZM16.6172 7.81437L13.1355 2.64125H16.5245L20.0061 7.81437H16.6172V7.81437ZM13.4788 7.81437H10.0899L6.60822 2.64125H9.99719L13.4788 7.81437ZM2.86287 2.64125H3.4699L6.95156 7.81437H2.86287V2.64125Z" fill="white"/>
</svg>
