<svg width="27" height="24" viewBox="0 0 27 24" fill="none" xmlns="http://www.w3.org/2000/svg">
<path d="M23.7497 0.0546875H2.86238C1.42246 0.0546875 0.251465 1.21476 0.251465 2.64125V20.7472C0.251465 22.1737 1.42246 23.3337 2.86238 23.3337H23.7497C25.1896 23.3337 26.3606 22.1737 26.3606 20.7472V2.64125C26.3606 1.21476 25.1896 0.0546875 23.7497 0.0546875ZM23.751 7.81437C23.7497 7.81437 23.7497 7.81437 23.751 7.81437H23.1439L19.6623 2.64125H23.7497L23.751 7.81437ZM17.8751 15.574L10.6951 19.4539V11.6942L17.8751 15.574ZM16.6167 7.81437L13.135 2.64125H16.524L20.0056 7.81437H16.6167V7.81437ZM13.4784 7.81437H10.0894L6.60773 2.64125H9.9967L13.4784 7.81437ZM2.86238 2.64125H3.46942L6.95107 7.81437H2.86238V2.64125Z" fill="white"/>
</svg>
