<svg width="28" height="32" viewBox="0 0 28 32" fill="none" xmlns="http://www.w3.org/2000/svg">
<path d="M0.618164 23.6673C0.618164 25.134 1.27429 26.4506 2.30053 27.3673V29.5006C2.30053 30.884 3.42771 32.0006 4.82408 32.0006C6.22044 32.0006 7.34763 30.884 7.34763 29.5006V28.6673H20.8065V29.5006C20.8065 30.8673 21.9337 32.0006 23.3301 32.0006C24.7096 32.0006 25.8536 30.884 25.8536 29.5006V27.3673C26.8799 26.4506 27.536 25.134 27.536 23.6673V7.00065C27.536 1.16732 21.5131 0.333984 14.0771 0.333984C6.64103 0.333984 0.618164 1.16732 0.618164 7.00065V23.6673ZM6.50644 25.334C5.11008 25.334 3.98289 24.2173 3.98289 22.834C3.98289 21.4506 5.11008 20.334 6.50644 20.334C7.90281 20.334 9.02999 21.4506 9.02999 22.834C9.02999 24.2173 7.90281 25.334 6.50644 25.334ZM21.6477 25.334C20.2514 25.334 19.1242 24.2173 19.1242 22.834C19.1242 21.4506 20.2514 20.334 21.6477 20.334C23.0441 20.334 24.1713 21.4506 24.1713 22.834C24.1713 24.2173 23.0441 25.334 21.6477 25.334ZM24.1713 15.334H3.98289V7.00065H24.1713V15.334Z" fill="white"/>
</svg>
