<svg width="16" height="17" viewBox="0 0 16 17" fill="none" xmlns="http://www.w3.org/2000/svg">
<path d="M15.4744 6.36062L10.6806 5.63065L8.53756 1.0787C8.47903 0.954068 8.38274 0.853178 8.26379 0.791852C7.96547 0.637549 7.60295 0.766135 7.4538 1.0787L5.31081 5.63065L0.516931 6.36062C0.384765 6.3804 0.263926 6.44568 0.17141 6.54459C0.059562 6.66504 -0.00207107 6.82709 5.31422e-05 6.99512C0.00217735 7.16316 0.0678851 7.32344 0.182738 7.44074L3.65117 10.9838L2.83174 15.9868C2.81252 16.1031 2.82481 16.2228 2.86722 16.3323C2.90962 16.4417 2.98045 16.5365 3.07165 16.6059C3.16286 16.6753 3.27081 16.7166 3.38325 16.725C3.49569 16.7334 3.60813 16.7086 3.70781 16.6534L7.99568 14.2914L12.2835 16.6534C12.4006 16.7187 12.5366 16.7405 12.6668 16.7167C12.9954 16.6574 13.2163 16.331 13.1596 15.9868L12.3402 10.9838L15.8086 7.44074C15.903 7.34381 15.9653 7.2172 15.9842 7.07872C16.0352 6.73253 15.8048 6.41205 15.4744 6.36062V6.36062Z" fill="#FDBF00"/>
</svg>
