<svg width="19" height="17" viewBox="0 0 19 17" fill="none" xmlns="http://www.w3.org/2000/svg">
<path d="M18.1989 5.7864L12.561 5.05643L10.0407 0.504479C9.97186 0.37985 9.85862 0.278959 9.71873 0.217633C9.36788 0.0633299 8.94154 0.191916 8.76612 0.504479L6.24584 5.05643L0.607943 5.7864C0.452507 5.80618 0.310394 5.87146 0.201588 5.97038C0.0700486 6.09082 -0.0024357 6.25287 6.24985e-05 6.42091C0.0025607 6.58894 0.079837 6.74922 0.214911 6.86652L4.294 10.4096L3.3303 15.4126C3.3077 15.5289 3.32215 15.6486 3.37203 15.7581C3.4219 15.8675 3.50519 15.9623 3.61246 16.0317C3.71972 16.1011 3.84667 16.1423 3.97891 16.1507C4.11115 16.1591 4.24338 16.1344 4.36062 16.0792L9.40341 13.7172L14.4462 16.0792C14.5839 16.1445 14.7438 16.1663 14.897 16.1425C15.2833 16.0832 15.5431 15.7568 15.4765 15.4126L14.5128 10.4096L18.5919 6.86652C18.7029 6.76959 18.7762 6.64298 18.7984 6.5045C18.8584 6.15831 18.5875 5.83783 18.1989 5.7864V5.7864Z" fill="#FDBF00"/>
</svg>
