<svg width="25" height="25" viewBox="0 0 25 25" fill="none" xmlns="http://www.w3.org/2000/svg">
<g clip-path="url(#clip0_1308_26431)">
<path d="M12.8727 22.6175C10.2494 22.6175 7.73348 21.5754 5.8785 19.7204C4.02352 17.8654 2.9814 15.3496 2.9814 12.7262C2.9814 10.1029 4.02352 7.58699 5.8785 5.73201C7.73348 3.87703 10.2494 2.83492 12.8727 2.83492C15.496 2.83492 18.0119 3.87703 19.8669 5.73201C21.7219 7.58699 22.764 10.1029 22.764 12.7262C22.764 15.3496 21.7219 17.8654 19.8669 19.7204C18.0119 21.5754 15.496 22.6175 12.8727 22.6175ZM12.8727 24.0306C15.8708 24.0306 18.7461 22.8396 20.8661 20.7196C22.9861 18.5996 24.177 15.7243 24.177 12.7262C24.177 9.72812 22.9861 6.85282 20.8661 4.73284C18.7461 2.61287 15.8708 1.42188 12.8727 1.42188C9.8746 1.42188 6.9993 2.61287 4.87932 4.73284C2.75935 6.85282 1.56836 9.72812 1.56836 12.7262C1.56836 15.7243 2.75935 18.5996 4.87932 20.7196C6.9993 22.8396 9.8746 24.0306 12.8727 24.0306V24.0306Z" fill="#1262AF"/>
<path d="M10.3489 7.92636C10.4822 7.85771 10.6319 7.82718 10.7814 7.83811C10.931 7.84903 11.0746 7.901 11.1965 7.98829L16.9012 12.0631C17.0068 12.1384 17.0929 12.238 17.1523 12.3534C17.2117 12.4687 17.2427 12.5967 17.2427 12.7264C17.2427 12.8562 17.2117 12.9841 17.1523 13.0995C17.0929 13.2149 17.0068 13.3144 16.9012 13.3898L11.1965 17.4646C11.0746 17.5518 10.9311 17.6037 10.7816 17.6147C10.6322 17.6256 10.4826 17.5951 10.3493 17.5265C10.2161 17.458 10.1043 17.354 10.0263 17.226C9.94831 17.0981 9.90711 16.9511 9.90723 16.8012V8.65166C9.90707 8.50185 9.94821 8.35489 10.0261 8.22693C10.1041 8.09897 10.2158 7.99497 10.3489 7.92636V7.92636Z" fill="#1262AF"/>
</g>
<defs>
<clipPath id="clip0_1308_26431">
<rect width="24" height="24" fill="white" transform="translate(0.873047 0.726562)"/>
</clipPath>
</defs>
</svg>
