<svg width="25" height="24" viewBox="0 0 25 24" fill="none" xmlns="http://www.w3.org/2000/svg">
<g clip-path="url(#clip0_1308_26379)">
<path d="M12.8727 21.891C10.2494 21.891 7.73348 20.8488 5.8785 18.9939C4.02352 17.1389 2.9814 14.623 2.9814 11.9997C2.9814 9.37632 4.02352 6.86043 5.8785 5.00545C7.73348 3.15047 10.2494 2.10836 12.8727 2.10836C15.496 2.10836 18.0119 3.15047 19.8669 5.00545C21.7219 6.86043 22.764 9.37632 22.764 11.9997C22.764 14.623 21.7219 17.1389 19.8669 18.9939C18.0119 20.8488 15.496 21.891 12.8727 21.891ZM12.8727 23.304C15.8708 23.304 18.7461 22.113 20.8661 19.993C22.9861 17.8731 24.177 14.9978 24.177 11.9997C24.177 9.00156 22.9861 6.12625 20.8661 4.00628C18.7461 1.8863 15.8708 0.695313 12.8727 0.695312C9.8746 0.695313 6.9993 1.8863 4.87932 4.00628C2.75935 6.12625 1.56836 9.00156 1.56836 11.9997C1.56836 14.9978 2.75935 17.8731 4.87932 19.993C6.9993 22.113 9.8746 23.304 12.8727 23.304V23.304Z" fill="#1262AF"/>
<path d="M10.3489 7.19979C10.4822 7.13115 10.6319 7.10062 10.7814 7.11154C10.931 7.12247 11.0746 7.17444 11.1965 7.26173L16.9012 11.3365C17.0068 11.4119 17.0929 11.5114 17.1523 11.6268C17.2117 11.7422 17.2427 11.8701 17.2427 11.9999C17.2427 12.1297 17.2117 12.2576 17.1523 12.3729C17.0929 12.4883 17.0068 12.5879 16.9012 12.6632L11.1965 16.738C11.0746 16.8252 10.9311 16.8772 10.7816 16.8881C10.6322 16.899 10.4826 16.8685 10.3493 16.8C10.2161 16.7314 10.1043 16.6274 10.0263 16.4995C9.94831 16.3715 9.90711 16.2245 9.90723 16.0746V7.9251C9.90707 7.77529 9.94821 7.62832 10.0261 7.50037C10.1041 7.37241 10.2158 7.26841 10.3489 7.19979V7.19979Z" fill="#1262AF"/>
</g>
<defs>
<clipPath id="clip0_1308_26379">
<rect width="24" height="24" fill="white" transform="translate(0.873047)"/>
</clipPath>
</defs>
</svg>
