<svg width="25" height="26" viewBox="0 0 25 26" fill="none" xmlns="http://www.w3.org/2000/svg">
<path d="M12.5 23.1901C9.76733 23.1901 7.14661 22.1046 5.21434 20.1723C3.28207 18.24 2.19653 15.6193 2.19653 12.8867C2.19653 10.154 3.28207 7.53332 5.21434 5.60105C7.14661 3.66879 9.76733 2.58325 12.5 2.58325C15.2326 2.58325 17.8533 3.66879 19.7856 5.60105C21.7179 7.53332 22.8034 10.154 22.8034 12.8867C22.8034 15.6193 21.7179 18.24 19.7856 20.1723C17.8533 22.1046 15.2326 23.1901 12.5 23.1901ZM12.5 24.662C15.623 24.662 18.6181 23.4214 20.8264 21.2131C23.0347 19.0048 24.2753 16.0097 24.2753 12.8867C24.2753 9.76367 23.0347 6.76856 20.8264 4.56025C18.6181 2.35194 15.623 1.11133 12.5 1.11133C9.37695 1.11133 6.38184 2.35194 4.17353 4.56025C1.96522 6.76856 0.724609 9.76367 0.724609 12.8867C0.724609 16.0097 1.96522 19.0048 4.17353 21.2131C6.38184 23.4214 9.37695 24.662 12.5 24.662V24.662Z" fill="#1262AF"/>
<path d="M9.87124 7.88715C10.0101 7.81565 10.166 7.78384 10.3218 7.79523C10.4775 7.80661 10.6271 7.86074 10.7541 7.95167L16.6965 12.1962C16.8065 12.2748 16.8962 12.3784 16.9581 12.4986C17.02 12.6188 17.0523 12.752 17.0523 12.8872C17.0523 13.0224 17.02 13.1557 16.9581 13.2759C16.8962 13.396 16.8065 13.4997 16.6965 13.5782L10.7541 17.8228C10.6272 17.9137 10.4776 17.9677 10.3219 17.9791C10.1663 17.9905 10.0105 17.9587 9.87164 17.8873C9.73284 17.8159 9.61641 17.7076 9.53517 17.5743C9.45392 17.441 9.41101 17.2879 9.41113 17.1318V8.64268C9.41097 8.48663 9.45383 8.33354 9.535 8.20025C9.61617 8.06696 9.73251 7.95863 9.87124 7.88715V7.88715Z" fill="#1262AF"/>
</svg>
